<?xml version="1.0" encoding="UTF-8" standalone="no"?>
<svg
   xmlns:dc="http://purl.org/dc/elements/1.1/"
   xmlns:cc="http://creativecommons.org/ns#"
   xmlns:rdf="http://www.w3.org/1999/02/22-rdf-syntax-ns#"
   xmlns:svg="http://www.w3.org/2000/svg"
   xmlns="http://www.w3.org/2000/svg"
   xmlns:sodipodi="http://sodipodi.sourceforge.net/DTD/sodipodi-0.dtd"
   xmlns:inkscape="http://www.inkscape.org/namespaces/inkscape"
   version="1.1"
   id="svg98"
   width="700"
   height="400"
   viewBox="0 0 700 400"
   sodipodi:docname="ext_lane.svg"
   inkscape:version="1.0.2 (1.0.2+r75+1)">
  <metadata
     id="metadata104">
    <rdf:RDF>
      <cc:Work
         rdf:about="">
        <dc:format>image/svg+xml</dc:format>
        <dc:type
           rdf:resource="http://purl.org/dc/dcmitype/StillImage" />
        <dc:title></dc:title>
      </cc:Work>
    </rdf:RDF>
  </metadata>
  <defs
     id="defs102" />
  <sodipodi:namedview
     pagecolor="#ffffff"
     bordercolor="#666666"
     borderopacity="1"
     objecttolerance="10"
     gridtolerance="10"
     guidetolerance="10"
     inkscape:pageopacity="0"
     inkscape:pageshadow="2"
     inkscape:window-width="1299"
     inkscape:window-height="713"
     id="namedview100"
     showgrid="false"
     inkscape:zoom="0.95105862"
     inkscape:cx="380.30995"
     inkscape:cy="176.93778"
     inkscape:window-x="67"
     inkscape:window-y="27"
     inkscape:window-maximized="1"
     inkscape:current-layer="g106" />
  <g
     inkscape:groupmode="layer"
     inkscape:label="Image"
     id="g106">
    <path
       style="fill:none;stroke:#000000;stroke-width:1px;stroke-linecap:butt;stroke-linejoin:miter;stroke-opacity:1"
       d="m 345.43293,95.62559 h -77.30846 c 0,0 -23.18145,-1.410916 -37.7405,13.14813 -14.55905,14.55905 -14.98754,20.57618 -14.98754,33.79546 0,13.21928 0,116.4148 0,116.4148 0,0 1.30375,18.38764 14.07519,30.77558 12.77145,12.38795 19.51649,12.94728 30.44293,12.94728 10.92643,0 180.1065,0 180.1065,0 0,0 17.1199,-1.35649 29.45567,-13.69226 12.33576,-12.33576 13.6752,-20.22483 13.6752,-29.03912 0,-8.8143 0,-119.0275 0,-119.0275 0,0 1.0295,-16.01362 -13.56533,-30.60845 -14.59483,-14.594834 -24.47379,-14.714554 -32.55985,-14.714554 -8.08607,0 -91.59381,6.34e-4 -91.59381,6.34e-4 z"
       id="path110" />
  </g>
</svg>
