<?xml version="1.0" encoding="UTF-8" standalone="no"?>
<svg
   xmlns:dc="http://purl.org/dc/elements/1.1/"
   xmlns:cc="http://creativecommons.org/ns#"
   xmlns:rdf="http://www.w3.org/1999/02/22-rdf-syntax-ns#"
   xmlns:svg="http://www.w3.org/2000/svg"
   xmlns="http://www.w3.org/2000/svg"
   xmlns:sodipodi="http://sodipodi.sourceforge.net/DTD/sodipodi-0.dtd"
   xmlns:inkscape="http://www.inkscape.org/namespaces/inkscape"
   version="1.1"
   id="svg44"
   width="700"
   height="400"
   viewBox="0 0 700 400"
   sodipodi:docname="int_lane.svg"
   inkscape:version="1.0.2 (1.0.2+r75+1)">
  <metadata
     id="metadata50">
    <rdf:RDF>
      <cc:Work
         rdf:about="">
        <dc:format>image/svg+xml</dc:format>
        <dc:type
           rdf:resource="http://purl.org/dc/dcmitype/StillImage" />
        <dc:title></dc:title>
      </cc:Work>
    </rdf:RDF>
  </metadata>
  <defs
     id="defs48" />
  <sodipodi:namedview
     pagecolor="#ffffff"
     bordercolor="#666666"
     borderopacity="1"
     objecttolerance="10"
     gridtolerance="10"
     guidetolerance="10"
     inkscape:pageopacity="0"
     inkscape:pageshadow="2"
     inkscape:window-width="1299"
     inkscape:window-height="713"
     id="namedview46"
     showgrid="false"
     inkscape:zoom="1.9021172"
     inkscape:cx="372.29325"
     inkscape:cy="185.043"
     inkscape:window-x="67"
     inkscape:window-y="27"
     inkscape:window-maximized="1"
     inkscape:current-layer="g52" />
  <g
     inkscape:groupmode="layer"
     inkscape:label="Image"
     id="g52">
    <path
       style="fill:none;stroke:#000000;stroke-width:1px;stroke-linecap:butt;stroke-linejoin:miter;stroke-opacity:1"
       d="m 343.24456,125.70361 h -51.91075 c 0,0 -17.55833,-0.14718 -31.35,13.64449 -13.79167,13.79167 -14.27131,25.08184 -14.27131,30.92999 0,5.84814 0,57.86623 0,57.86623 0,0 -0.67826,16.55574 12.83301,30.06701 13.51128,13.51127 25.063,15.05407 29.74125,15.05407 4.67824,0 121.58345,0 121.58345,0 0,0 16.23865,-0.62313 29.651,-14.03548 13.41235,-13.41235 13.32198,-23.65235 13.32198,-29.4119 0,-5.75955 0,-58.95481 0,-58.95481 0,0 -0.51958,-15.36043 -15.46395,-30.3048 -14.94437,-14.94437 -30.75705,-15.13975 -33.45315,-15.13975 -2.69609,0 -60.68153,0.28495 -60.68153,0.28495 z"
       id="path56" />
  </g>
</svg>
